HIERARCHY
ROOT Hips
{
	OFFSET	0.000000	0.000000	0.000000
	CHANNELS 6 Xposition Yposition Zposition Zrotation Xrotation Yrotation
	JOINT LeftUpLeg
	{
		OFFSET	10.375517	0.070054	-1.037171
		CHANNELS 3 Zrotation Xrotation Yrotation
		JOINT LeftLeg
		{
			OFFSET	0.016704	-38.676832	0.663765
			CHANNELS 3 Zrotation Xrotation Yrotation
			JOINT LeftFoot
			{
				OFFSET	0.110187	-36.174427	-0.332491
				CHANNELS 3 Zrotation Xrotation Yrotation
				JOINT LeftFootHeel
				{
					OFFSET	-0.322384	-5.304612	-2.321053
					CHANNELS 3 Zrotation Xrotation Yrotation
					End Site
					{
						OFFSET	0.000000	0.000000	13.213880
					}
				}
			}
		}
	}
	JOINT RightUpLeg
	{
		OFFSET	-10.375517	0.070054	-1.037171
		CHANNELS 3 Zrotation Xrotation Yrotation
		JOINT RightLeg
		{
			OFFSET	-0.016704	-38.676832	0.663765
			CHANNELS 3 Zrotation Xrotation Yrotation
			JOINT RightFoot
			{
				OFFSET	-0.110187	-36.174427	-0.332491
				CHANNELS 3 Zrotation Xrotation Yrotation
				JOINT RightFootHeel
				{
					OFFSET	0.322384	-5.304612	-2.321053
					CHANNELS 3 Zrotation Xrotation Yrotation
					End Site
					{
						OFFSET	0.000000	0.000000	13.213880
					}
				}
			}
		}
	}
	JOINT Spine
	{
		OFFSET	0.000000	11.683696	0.877014
		CHANNELS 3 Zrotation Xrotation Yrotation
		JOINT Spine1
		{
			OFFSET	0.000000	10.438763	-0.438501
			CHANNELS 3 Zrotation Xrotation Yrotation
			JOINT LeftShoulder
			{
				OFFSET	5.089296	28.582620	1.093691
				CHANNELS 3 Zrotation Xrotation Yrotation
				JOINT LeftArm
				{
					OFFSET	12.302820	0.054706	0.445122
					CHANNELS 3 Zrotation Xrotation Yrotation
					JOINT LeftForeArm
					{
						OFFSET	2.635072	-28.921202	0.907512
						CHANNELS 3 Zrotation Xrotation Yrotation
						JOINT LeftHand
						{
							OFFSET	1.766258	-25.604217	2.278504
							CHANNELS 3 Zrotation Xrotation Yrotation
							End Site
							{
								OFFSET	-1.490033	-7.801915	0.212894
							}
						}
					}
				}
			}
			JOINT RightShoulder
			{
				OFFSET	-5.089296	28.582620	1.093691
				CHANNELS 3 Zrotation Xrotation Yrotation
				JOINT RightArm
				{
					OFFSET	-12.302820	0.054706	0.445122
					CHANNELS 3 Zrotation Xrotation Yrotation
					JOINT RightForeArm
					{
						OFFSET	-2.635072	-28.921202	0.907512
						CHANNELS 3 Zrotation Xrotation Yrotation
						JOINT RightHand
						{
							OFFSET	-1.766258	-25.604217	2.278504
							CHANNELS 3 Zrotation Xrotation Yrotation
							End Site
							{
								OFFSET	1.490033	-7.801915	0.212894
							}
						}
					}
				}
			}
			JOINT Neck
			{
				OFFSET	0.000000	32.695639	-1.315537
				CHANNELS 3 Zrotation Xrotation Yrotation
				JOINT Head
				{
					OFFSET	0.000000	7.700518	2.192561
					CHANNELS 3 Zrotation Xrotation Yrotation
					End Site
					{
						OFFSET	0.000000	12.695452	-1.315537
					}
				}
			}
		}
	}
}
MOTION
Frames:    19
Frame Time: 0.016667
1.371321	81.632439	-1.075085	-8.290804	3.259142	33.430355	17.741276	-21.458555	32.259716	-4.065649	18.595402	23.225681	0.334946	1.632629	2.147357	0.	0.	0.	9.867406	-10.539846	-4.144367	-1.107134	5.070337	10.330224	-3.497817	0.903507	1.414982	0.	0.	0.	-0.000000	0.000002	0.000001	-2.411529	11.226560	-6.390892	0.459864	-0.541052	-8.227898	9.734909	-25.037212	5.614212	-32.285870	-5.776696	-44.163517	36.461266	-7.076932	-23.184168	-5.644496	2.858396	6.475996	-0.305041	-15.296385	-0.162917	37.465458	-31.465790	59.376980	-60.192471	-12.578126	-23.547005	-0.963421	21.150848	2.354250	-5.596476	12.285902	-2.590504	
1.446452	81.644415	-1.057725	-8.317729	3.215823	33.604084	17.747202	-21.433245	32.338871	-4.002555	18.642187	23.030670	0.304004	1.658956	2.064477	0.	0.	0.	9.819590	-10.522625	-4.213975	-1.053754	5.152166	10.205757	-3.521076	0.866091	1.405449	0.	0.	0.	-0.000000	-0.000000	0.000001	-2.377137	11.120051	-6.548548	0.500781	-0.616051	-7.968748	10.081629	-24.725054	5.166492	-32.896610	-6.111245	-45.655510	38.059128	-8.954699	-22.422421	-5.514668	2.957395	6.816040	-0.879653	-15.087358	-0.664361	38.189110	-31.812546	60.026394	-59.700104	-11.782077	-22.596594	-1.032574	21.157938	2.391009	-5.769060	12.240799	-2.368043	
1.527470	81.655674	-1.039018	-8.359255	3.217917	33.682220	17.781769	-21.410599	32.465694	-4.004774	18.699966	22.918390	0.295809	1.647887	1.979688	0.	0.	0.	9.772147	-10.549377	-4.096686	-0.991732	5.246135	10.008754	-3.543020	0.833194	1.387272	0.	0.	0.	-0.000001	-0.000001	-0.000002	-2.352217	10.992855	-6.471262	0.529084	-0.723075	-7.789802	10.351361	-24.350124	4.840350	-33.633709	-6.662503	-47.017395	38.909042	-9.763448	-20.880222	-5.462156	3.083145	6.855706	-1.302351	-14.774961	-0.906007	39.056152	-32.366554	60.930992	-59.383320	-11.129658	-21.698278	-1.000529	21.137568	2.442314	-5.927344	12.197987	-2.305683	
1.606434	81.683501	-1.053481	-8.308479	3.182452	33.887928	17.691423	-21.370623	32.353737	-4.015450	18.758516	22.842831	0.274014	1.640520	1.945214	0.	0.	0.	9.648268	-10.500598	-4.193874	-0.963910	5.291834	9.916989	-3.536880	0.827853	1.336267	0.	0.	0.	0.000000	0.000001	-0.000000	-2.348380	11.062764	-6.488717	0.558040	-0.755806	-7.629002	10.551926	-24.109642	4.950728	-34.648579	-7.380093	-48.064476	39.241013	-10.405935	-20.384489	-5.390304	3.062641	6.954313	-1.679546	-14.407500	-1.312968	39.923927	-32.904945	61.670586	-59.467686	-10.762058	-21.553627	-1.042844	21.005102	2.561814	-5.918835	12.157953	-2.328781	
1.696122	81.698219	-1.051514	-8.341619	3.187299	33.956329	17.703346	-21.369959	32.379681	-4.024952	18.821581	22.830153	0.253858	1.629584	1.877278	0.	0.	0.	9.601014	-10.504521	-4.143620	-0.943497	5.325515	9.800261	-3.513028	0.829332	1.315139	0.	0.	0.	0.000000	-0.000000	0.000003	-2.316673	11.085351	-6.326399	0.545802	-0.806846	-7.442958	10.876533	-23.780508	5.241287	-35.808411	-8.418580	-49.062710	39.218231	-11.532352	-20.913799	-5.541231	3.053498	6.939771	-1.843959	-14.117139	-1.766128	40.824066	-33.368916	62.226139	-59.745960	-10.481164	-21.792521	-1.160363	20.828520	2.581910	-5.784791	12.137475	-2.278964	
1.781891	81.716687	-1.054649	-8.354299	3.201476	34.085434	17.626993	-21.358738	32.308147	-4.022791	18.832792	22.786728	0.217064	1.640671	1.855664	0.	0.	0.	9.523088	-10.507221	-4.187558	-0.928145	5.350390	9.705577	-3.462732	0.831862	1.291543	0.	0.	0.	0.000001	0.000002	0.000006	-2.304366	11.031927	-6.276367	0.501462	-0.755389	-7.400754	11.578574	-23.348663	6.030437	-37.158989	-9.516957	-50.965366	39.289295	-12.068263	-20.515057	-5.722850	3.167717	6.958361	-1.918709	-13.905068	-2.253569	41.744247	-33.731861	62.551933	-59.809933	-10.003033	-22.201210	-1.161403	20.733891	2.612751	-5.776588	12.123594	-2.240467	
1.768438	81.722123	-1.085476	-8.324334	3.230996	34.197281	17.550856	-21.386795	32.243118	-4.019308	18.827909	22.737337	0.177267	1.663039	1.859276	0.	0.	0.	9.454752	-10.550969	-4.228708	-0.916340	5.369465	9.632919	-3.407242	0.834620	1.265548	0.	0.	0.	-0.000000	0.000000	0.000002	-2.207016	10.864351	-6.228468	0.341871	-0.678736	-7.108231	12.282252	-23.004093	6.738245	-38.642265	-10.610021	-52.793369	38.981350	-12.277306	-20.363031	-5.927329	3.361650	6.892622	-2.018423	-13.815990	-2.671134	42.536232	-34.141407	63.394093	-59.444878	-8.998321	-21.895803	-1.100488	20.776552	2.553155	-5.919639	12.030881	-2.174545	
1.755581	81.724109	-1.094535	-8.299726	3.255841	34.289051	17.483822	-21.418528	32.159439	-4.005590	18.823126	22.723228	0.133444	1.674014	1.873011	0.	0.	0.	9.399714	-10.583181	-4.278829	-0.895737	5.398689	9.588202	-3.353727	0.822594	1.232415	0.	0.	0.	0.000000	0.000001	0.000000	-2.074209	10.720458	-6.113348	0.145736	-0.612821	-6.858898	13.290074	-22.530172	7.771774	-40.393890	-11.692883	-54.516396	38.584263	-12.470373	-20.134647	-6.122605	3.467438	6.732622	-2.018655	-13.666099	-3.005771	43.105381	-34.614864	64.569527	-58.382107	-7.752094	-20.513323	-1.072788	20.848749	2.394995	-6.056676	11.912601	-2.059931	
1.746913	81.724138	-1.096315	-8.281525	3.274493	34.356358	17.436529	-21.437298	32.114681	-3.969436	18.795057	22.690212	0.085437	1.707603	1.885173	0.	0.	0.	9.361738	-10.599405	-4.346554	-0.885566	5.412097	9.586887	-3.289616	0.814281	1.197109	0.	0.	0.	0.000000	0.000001	0.000005	-2.007161	10.653152	-6.073989	0.027370	-0.633200	-6.530210	13.833996	-22.203802	8.223719	-41.685806	-13.119637	-55.717716	37.905762	-11.821362	-20.259584	-6.230330	3.509420	6.655374	-1.939900	-13.678767	-3.232198	43.286575	-34.777195	65.119476	-57.262814	-6.506960	-19.010298	-1.072996	20.904993	2.338594	-6.160298	11.791017	-1.888949	
1.740632	81.723615	-1.105855	-8.257235	3.295027	34.403709	17.359541	-21.434233	32.053818	-3.928292	18.692726	22.689724	0.080837	1.783742	1.878440	0.	0.	0.	9.321221	-10.610532	-4.394969	-0.885564	5.412096	9.586885	-3.184602	0.817892	1.150084	0.	0.	0.	0.000000	0.000001	-0.000000	-1.843931	10.568587	-5.874318	-0.147631	-0.660693	-6.371404	15.299202	-21.253561	9.869117	-44.211304	-14.388638	-57.589268	37.821571	-11.811261	-20.185875	-6.461505	3.552351	6.456957	-1.830369	-13.699642	-3.411706	43.216808	-34.697517	65.038239	-56.708252	-5.469329	-18.433487	-1.117658	20.971857	2.110875	-6.283438	11.739510	-1.686661	
1.740511	81.741288	-1.105234	-8.200829	3.330469	34.391518	17.231066	-21.385950	32.019135	-3.856567	18.546623	22.699074	0.068393	1.871697	1.868973	0.	0.	0.	9.252909	-10.615704	-4.349007	-0.879339	5.422060	9.548836	-3.057925	0.821997	1.093648	0.	0.	0.	0.000001	0.000000	0.000003	-1.713729	10.430190	-5.606340	-0.275834	-0.583161	-6.211328	16.632496	-20.244558	11.510115	-46.752712	-15.706787	-59.069725	37.283546	-11.790579	-20.445738	-6.565137	3.693674	6.267289	-1.794611	-13.719052	-3.613127	42.944492	-34.583439	64.351028	-56.453220	-4.933361	-18.330925	-1.144329	21.087593	1.943356	-6.435125	11.715818	-1.530567	
1.742814	81.758225	-1.102425	-8.135522	3.370075	34.363007	17.087658	-21.350775	31.928345	-3.777394	18.451666	22.769281	0.010772	1.931610	1.869705	0.	0.	0.	9.178631	-10.614578	-4.296683	-0.874591	5.429361	9.514317	-2.991923	0.823926	1.070204	0.	0.	0.	-0.000001	-0.000001	0.000000	-1.539647	10.271907	-5.272987	-0.397698	-0.465330	-6.161494	17.787519	-19.228176	13.042664	-49.314541	-17.190670	-59.916359	35.812355	-11.508551	-21.141850	-6.542564	3.777951	6.059998	-1.859727	-13.636355	-3.853897	42.530190	-34.405464	63.476021	-56.388996	-4.659040	-18.383635	-1.234621	21.205124	1.697861	-6.572859	11.639813	-1.307224	
1.743795	81.777158	-1.092513	-8.082254	3.402408	34.338921	16.972048	-21.333897	31.827810	-3.751732	18.402494	22.852680	-0.013813	1.950647	1.884900	0.	0.	0.	9.120262	-10.607977	-4.276187	-0.872760	5.427675	9.428334	-2.858623	0.825850	1.095584	0.	0.	0.	-0.000001	0.000002	0.000004	-1.343048	10.167247	-4.863956	-0.478365	-0.355480	-6.230602	18.864523	-18.190693	14.625686	-51.954906	-18.739704	-60.972813	34.112061	-10.673906	-22.242613	-6.445177	3.783170	5.804106	-2.001704	-13.493313	-4.135121	42.145199	-34.213596	62.696457	-56.281082	-4.472733	-18.484552	-1.303168	21.146538	1.608837	-6.663660	11.625160	-1.253997	
1.743767	81.790103	-1.085733	-8.051647	3.421004	34.324562	16.908010	-21.334150	31.790197	-3.739256	18.378496	22.829599	-0.008381	1.958595	1.948482	0.	0.	0.	9.086807	-10.604146	-4.263893	-0.871497	5.425538	9.348605	-2.749693	0.828290	1.125295	0.	0.	0.	-0.000001	-0.000000	0.000004	-1.079365	10.103349	-4.461748	-0.543722	-0.283774	-6.263863	19.913616	-17.161417	16.211172	-54.242661	-20.269497	-62.460121	32.602634	-9.707470	-23.158228	-6.385074	3.756438	5.541926	-2.169702	-13.473014	-4.300968	41.768093	-33.952602	61.898933	-56.126640	-4.350639	-18.596294	-1.365697	20.972431	1.531596	-6.793727	11.602348	-1.152326	
1.752466	81.795035	-1.075444	-8.030402	3.384166	34.287418	16.867172	-21.334259	31.749670	-3.691084	18.380411	22.800955	-0.001644	1.968422	2.027315	0.	0.	0.	9.095419	-10.556623	-4.234663	-0.879124	5.430900	9.335214	-2.655861	0.824789	1.098960	0.	0.	0.	-0.000001	0.000002	0.000004	-0.738923	10.007139	-4.118860	-0.575511	-0.126244	-6.194094	20.885130	-16.178307	17.701063	-56.270081	-21.794991	-63.976170	30.867449	-8.825699	-23.677853	-6.372797	3.789084	5.373000	-2.319104	-13.516325	-4.344349	41.433876	-33.804081	61.258553	-55.759998	-4.479752	-18.622765	-1.460859	20.828831	1.536713	-6.987807	11.559842	-0.955301	
1.764932	81.805122	-1.057949	-7.967300	3.340765	34.224865	16.821316	-21.296705	31.724026	-3.659159	18.403130	22.776331	-0.001286	1.967274	2.107345	0.	0.	0.	9.078565	-10.471216	-4.210218	-0.890465	5.429414	9.326574	-2.572608	0.821024	1.095648	0.	0.	0.	0.000000	0.000002	0.000006	-0.409378	10.005523	-3.847064	-0.568354	-0.021607	-6.011073	21.740128	-15.190227	19.014317	-58.275570	-22.229256	-65.343903	30.225914	-8.554124	-23.668327	-6.323568	3.754080	5.365254	-2.498510	-13.584778	-4.417880	41.074627	-33.760159	60.839397	-55.373447	-4.570169	-18.556978	-1.477450	20.661146	1.537188	-7.360415	11.457191	-0.574798	
1.806269	81.817805	-1.038834	-7.900510	3.300392	34.164204	16.794844	-21.232817	31.692266	-3.649500	18.464859	22.743715	-0.023085	1.926334	2.197201	0.	0.	0.	9.036318	-10.374084	-4.203403	-0.898495	5.429948	9.363348	-2.476784	0.802940	1.060496	0.	0.	0.	-0.000001	0.000001	-0.000001	-0.061073	9.946841	-3.653509	-0.560476	0.162410	-5.726162	22.349382	-14.358482	19.931858	-59.608509	-23.923225	-65.968948	28.573418	-8.776671	-23.844114	-6.294190	3.820318	5.485538	-2.717665	-13.667686	-4.631576	40.770145	-33.715691	60.582325	-55.217579	-4.534426	-18.627127	-1.531296	20.567822	1.567857	-7.806436	11.350427	-0.021594	
1.866078	81.832843	-1.021632	-7.826384	3.269262	34.114674	16.753683	-21.175938	31.650400	-3.639258	18.529749	22.706951	-0.039429	1.883976	2.286811	0.	0.	0.	8.968610	-10.276546	-4.210689	-0.907537	5.435547	9.401842	-2.382972	0.772225	1.031548	0.	0.	0.	-0.000000	0.000002	-0.000006	0.289537	9.844897	-3.381930	-0.581346	0.369888	-5.500482	22.993137	-13.648162	20.821623	-60.786041	-25.419104	-66.245110	27.649853	-8.891273	-24.114101	-6.236310	3.827720	5.467397	-3.075315	-13.501591	-4.860198	40.930496	-33.948822	60.449177	-55.010578	-4.437201	-18.369781	-1.616646	20.530180	1.546598	-8.085366	11.425750	0.121540	
1.927776	81.847716	-1.011070	-7.751251	3.252176	34.096626	16.699337	-21.136080	31.559223	-3.642250	18.595030	22.709515	-0.050426	1.841371	2.357792	0.	0.	0.	8.880098	-10.190995	-4.251801	-0.910523	5.438081	9.443199	-2.325395	0.736573	1.027024	0.	0.	0.	-0.000001	-0.000000	-0.000000	0.644674	9.756449	-3.069956	-0.615513	0.546217	-5.297300	23.649309	-13.082129	21.809563	-61.753120	-26.525511	-66.676453	27.606567	-8.465416	-23.932066	-6.210190	3.828979	5.347660	-3.206079	-13.361419	-5.131280	41.067482	-34.245731	60.489872	-54.751980	-4.237040	-17.873940	-1.721872	20.423630	1.637994	-8.470188	11.420203	0.647584	
